<svg id="Layer_3" enable-background="new 0 0 64 64" height="512" viewBox="0 0 64 64" width="512" xmlns="http://www.w3.org/2000/svg"><g><g><path d="m56 54h-52v-32c0-1.105.895-2 2-2h48c1.105 0 2 .895 2 2z" fill="#8892a0"/></g><g><path d="m8 24h44v26h-44z" fill="#a2dbf7"/></g><g><path d="m8 24v21.125c2.732.566 5.575.875 8.5.875 16.188 0 29.98-9.163 35.231-22z" fill="#c7e9fa"/></g><g><path d="m54 62h-48c-2.209 0-4-1.791-4-4v-4h56v4c0 2.209-1.791 4-4 4z" fill="#8892a0"/></g><g><path d="m21 54 4 4h10l4-4z" fill="#b8bec6"/></g><g><path d="m6 8c1.889-.63 3.37-2.111 4-4 .63 1.889 2.111 3.37 4 4-1.889.63-3.37 2.111-4 4-.63-1.889-2.111-3.37-4-4z" fill="#e0747c"/></g><g><path d="m20 40c1.889-.63 3.37-2.111 4-4 .63 1.889 2.111 3.37 4 4-1.889.63-3.37 2.111-4 4-.63-1.889-2.111-3.37-4-4z" fill="#e0747c"/></g><g><circle cx="43" cy="21" fill="#cdd3da" r="19"/></g><g><path d="m24 21c0 5.306 2.18 10.099 5.687 13.546 13.262-2.312 23.313-13.313 23.313-26.546 0-1.106-.078-2.193-.215-3.264-2.861-1.725-6.201-2.736-9.785-2.736-10.493 0-19 8.507-19 19z" fill="#ebedf0"/></g><g><path d="m43 10c0-1.657-1.343-3-3-3h-1v6l-4 4h-10.57c-.277 1.291-.43 2.627-.43 4 0 3.674 1.06 7.093 2.866 10h8.134l4 2h12c1.105 0 2-.895 2-2v-2-4-4-4h-10z" fill="#fadfb2"/></g><g><path d="m24.145 23.251c.05.422.116.838.194 1.251.031.163.054.328.089.489.103.482.232.955.371 1.423.081.27.172.536.265.801.075.217.156.432.24.645.402 1.028.888 2.013 1.453 2.946.039.065.079.128.119.192h8.124l2.264 1.132c6.54-3.109 11.641-8.529 14.107-15.132h-8.371v-7c0-1.657-1.343-3-3-3h-1v6l-4 4h-10.57c-.035.165-.063.333-.094.5-.091.486-.172.976-.225 1.474-.01.088-.014.178-.022.267-.053.582-.089 1.167-.089 1.761 0 .584.037 1.159.089 1.73.016.175.035.348.056.521z" fill="#fcecd1"/></g><g><path d="m54 63h-48c-2.757 0-5-2.243-5-5v-4c0-.553.447-1 1-1h56c.553 0 1 .447 1 1v4c0 2.757-2.243 5-5 5zm-51-8v3c0 1.654 1.346 3 3 3h48c1.654 0 3-1.346 3-3v-3z"/></g><g><path d="m55 34.85h2v19.15h-2z"/></g><g><path d="m5 54h-2v-32c0-1.654 1.346-3 3-3h18.026v2h-18.026c-.552 0-1 .448-1 1z"/></g><g><path d="m35 59h-10c-.266 0-.52-.105-.707-.293l-4-4 1.414-1.414 3.707 3.707h9.172l3.707-3.707 1.414 1.414-4 4c-.187.188-.441.293-.707.293z"/></g><g><path d="m52 51h-44c-.553 0-1-.447-1-1v-26c0-.553.447-1 1-1h16.236v2h-15.236v24h42v-11.305h2v12.305c0 .553-.447 1-1 1z"/></g><g><path d="m51 57h2v2h-2z"/></g><g><path d="m47 57h2v2h-2z"/></g><g><path d="m51 34h-12c-.155 0-.309-.036-.447-.105l-3.789-1.895h-7.764v-2h8c.155 0 .309.036.447.105l3.789 1.895h11.764c.552 0 1-.448 1-1v-1h-8v-2h9c.553 0 1 .447 1 1v2c0 1.654-1.346 3-3 3z"/></g><g><path d="m53 30h-9v-2h8v-2h-8v-2h9c.553 0 1 .447 1 1v4c0 .553-.447 1-1 1z"/></g><g><path d="m53 26h-9v-2h8v-2h-8v-2h9c.553 0 1 .447 1 1v4c0 .553-.447 1-1 1z"/></g><g><path d="m53 22h-9v-2h8v-2h-9c-.553 0-1-.447-1-1v-7c0-1.103-.897-2-2-2v5c0 .266-.105.52-.293.707l-4 4c-.187.188-.441.293-.707.293h-11v-2h10.586l3.414-3.414v-5.586c0-.553.447-1 1-1h1c2.206 0 4 1.794 4 4v6h9c.553 0 1 .447 1 1v4c0 .553-.447 1-1 1z"/></g><g><path d="m43 41c-11.028 0-20-8.972-20-20s8.972-20 20-20 20 8.972 20 20-8.972 20-20 20zm0-38c-9.925 0-18 8.075-18 18s8.075 18 18 18 18-8.075 18-18-8.075-18-18-18z"/></g><g><path d="m10 13c-.431 0-.812-.275-.948-.684-.527-1.581-1.787-2.841-3.368-3.368-.409-.136-.684-.517-.684-.948s.275-.812.684-.948c1.581-.527 2.841-1.787 3.368-3.368.136-.409.517-.684.948-.684s.812.275.948.684c.527 1.581 1.787 2.841 3.368 3.368.409.136.684.517.684.948s-.275.812-.684.948c-1.581.527-2.841 1.787-3.368 3.368-.136.409-.517.684-.948.684zm-1.805-5c.701.492 1.313 1.104 1.805 1.805.492-.701 1.104-1.313 1.805-1.805-.701-.492-1.313-1.104-1.805-1.805-.492.701-1.104 1.313-1.805 1.805z"/></g><g><path d="m24 45c-.431 0-.812-.275-.948-.684-.527-1.581-1.787-2.841-3.368-3.368-.409-.136-.684-.517-.684-.948s.275-.812.684-.948c1.581-.527 2.841-1.787 3.368-3.368.136-.409.517-.684.948-.684s.812.275.948.684c.527 1.581 1.787 2.841 3.368 3.368.409.136.684.517.684.948s-.275.812-.684.948c-1.581.527-2.841 1.787-3.368 3.368-.136.409-.517.684-.948.684zm-1.805-5c.701.492 1.312 1.104 1.805 1.805.492-.701 1.104-1.312 1.805-1.805-.701-.492-1.312-1.104-1.805-1.805-.492.701-1.104 1.313-1.805 1.805z"/></g></g></svg>