<?xml version="1.0" encoding="UTF-8" standalone="no"?>
<!-- Created with Inkscape (http://www.inkscape.org/) -->

<svg
   xmlns:dc="http://purl.org/dc/elements/1.1/"
   xmlns:cc="http://creativecommons.org/ns#"
   xmlns:rdf="http://www.w3.org/1999/02/22-rdf-syntax-ns#"
   xmlns:svg="http://www.w3.org/2000/svg"
   xmlns="http://www.w3.org/2000/svg"
   xmlns:sodipodi="http://sodipodi.sourceforge.net/DTD/sodipodi-0.dtd"
   xmlns:inkscape="http://www.inkscape.org/namespaces/inkscape"
   width="210mm"
   height="297mm"
   viewBox="0 0 210 297"
   version="1.1"
   id="svg8"
   inkscape:version="0.92.4 (5da689c313, 2019-01-14)"
   sodipodi:docname="smartphone.svg"
   inkscape:export-filename="/home/andre/www/conversor/img/smartphone.png"
   inkscape:export-xdpi="96"
   inkscape:export-ydpi="96">
  <defs
     id="defs2" />
  <sodipodi:namedview
     id="base"
     pagecolor="#ffffff"
     bordercolor="#666666"
     borderopacity="1.0"
     inkscape:pageopacity="0.0"
     inkscape:pageshadow="2"
     inkscape:zoom="2.8"
     inkscape:cx="316.0139"
     inkscape:cy="229.54022"
     inkscape:document-units="mm"
     inkscape:current-layer="svg8"
     showgrid="false"
     showborder="false"
     showguides="true"
     inkscape:snap-grids="false"
     inkscape:guide-bbox="true"
     inkscape:window-width="1366"
     inkscape:window-height="768"
     inkscape:window-x="0"
     inkscape:window-y="0"
     inkscape:window-maximized="1">
    <inkscape:grid
       type="xygrid"
       id="grid4534" />
    <sodipodi:guide
       position="44.979167,127"
       orientation="1,0"
       id="guide4536"
       inkscape:locked="false" />
  </sodipodi:namedview>
  <metadata
     id="metadata5">
    <rdf:RDF>
      <cc:Work
         rdf:about="">
        <dc:format>image/svg+xml</dc:format>
        <dc:type
           rdf:resource="http://purl.org/dc/dcmitype/StillImage" />
        <dc:title />
      </cc:Work>
    </rdf:RDF>
  </metadata>
  <rect
     style="opacity:0.93999999;fill:#f7f7f7;fill-opacity:1;stroke:none;stroke-width:0.47835276;stroke-miterlimit:4;stroke-dasharray:none;stroke-opacity:1;paint-order:fill markers stroke"
     id="rect4765"
     width="92.904984"
     height="183.82825"
     x="-0.98186839"
     y="54.850182"
     ry="10.813762"
     inkscape:export-xdpi="96"
     inkscape:export-ydpi="96" />
  <g
     inkscape:label="Camada 1"
     inkscape:groupmode="layer"
     id="layer1">
    <rect
       style="display:inline;fill:#f7f7f7;fill-opacity:1;stroke:#acacac;stroke-width:0.4556914;stroke-miterlimit:4;stroke-dasharray:none;stroke-opacity:1;paint-order:fill markers stroke"
       id="rect4732"
       width="90.599785"
       height="180.5251"
       x="0.0053650606"
       y="56.857056"
       ry="8.9462366"
       inkscape:export-xdpi="96"
       inkscape:export-ydpi="96" />
    <path
       style="color:#000000;font-style:normal;font-variant:normal;font-weight:normal;font-stretch:normal;font-size:medium;line-height:normal;font-family:sans-serif;font-variant-ligatures:normal;font-variant-position:normal;font-variant-caps:normal;font-variant-numeric:normal;font-variant-alternates:normal;font-feature-settings:normal;text-indent:0;text-align:start;text-decoration:none;text-decoration-line:none;text-decoration-style:solid;text-decoration-color:#000000;letter-spacing:normal;word-spacing:normal;text-transform:none;writing-mode:lr-tb;direction:ltr;text-orientation:mixed;dominant-baseline:auto;baseline-shift:baseline;text-anchor:start;white-space:normal;shape-padding:0;clip-rule:nonzero;display:inline;overflow:visible;visibility:visible;opacity:1;isolation:auto;mix-blend-mode:normal;color-interpolation:sRGB;color-interpolation-filters:linearRGB;solid-color:#000000;solid-opacity:1;vector-effect:none;fill:#acacac;fill-opacity:1;fill-rule:nonzero;stroke:none;stroke-width:1.17283976;stroke-linecap:butt;stroke-linejoin:miter;stroke-miterlimit:4;stroke-dasharray:none;stroke-dashoffset:0;stroke-opacity:1;paint-order:fill markers stroke;color-rendering:auto;image-rendering:auto;shape-rendering:auto;text-rendering:auto;enable-background:accumulate"
       d="m 7.6620644,54.609587 c -5.1490161,0 -9.2598997,5.710586 -9.2598997,12.705161 v 5.267397 h 1.04903158 v -5.267397 c 0,-6.355097 3.68146482,-11.392196 8.21086812,-11.392196 H 83.0001 c 4.529405,0 8.210868,5.037099 8.21087,11.392196 v 5.267397 h 1.049031 v -5.267397 c 0,-6.994575 -4.110884,-12.705161 -9.259901,-12.705161 z M -1.5978353,74.238721 V 226.97506 c 0,6.99458 4.1108835,12.70517 9.2598997,12.70517 H 83.0001 c 5.149017,0 9.259901,-5.71059 9.259901,-12.70517 V 74.238721 H 91.21097 V 226.97506 c 0,6.3551 -3.681465,11.39221 -8.21087,11.39221 H 7.6620644 c -4.5294033,0 -8.21086809,-5.03711 -8.21086812,-11.39221 V 74.238721 Z"
       id="rect3713"
       inkscape:connector-curvature="0"
       inkscape:export-xdpi="96"
       inkscape:export-ydpi="96" />
    <path
       inkscape:connector-curvature="0"
       id="path4522"
       d="m 54.047729,223.00461 a 8.6862593,8.6862593 0 0 1 -8.686259,8.68626 8.6862593,8.6862593 0 0 1 -8.686259,-8.68626 8.6862593,8.6862593 0 0 1 8.686259,-8.68626 8.6862593,8.6862593 0 0 1 8.686259,8.68626 z"
       style="display:inline;fill:#f7f7f7;fill-opacity:1;stroke:#acacac;stroke-width:1.10000002;stroke-miterlimit:4;stroke-dasharray:none;stroke-opacity:1;paint-order:fill markers stroke"
       inkscape:export-xdpi="96"
       inkscape:export-ydpi="96" />
    <path
       inkscape:connector-curvature="0"
       id="rect4538"
       d="m 35.718753,64.166664 h 18.520832 c 0.732896,0 1.322917,0.590021 1.322917,1.322917 0,0.732896 -0.590021,1.322916 -1.322917,1.322916 H 35.718753 c -0.732896,0 -1.322917,-0.59002 -1.322917,-1.322916 0,-0.732896 0.590021,-1.322917 1.322917,-1.322917 z"
       style="fill:#ececec;stroke:#acacac;stroke-width:1.10000002;stroke-miterlimit:4;stroke-dasharray:none;stroke-opacity:1;paint-order:fill markers stroke"
       inkscape:export-xdpi="96"
       inkscape:export-ydpi="96" />
    <path
       inkscape:connector-curvature="0"
       id="path4542"
       d="m 29.895673,65.489639 a 0.77963585,0.77963585 0 0 1 -0.779636,0.779636 0.77963585,0.77963585 0 0 1 -0.779635,-0.779636 0.77963585,0.77963585 0 0 1 0.779635,-0.779636 0.77963585,0.77963585 0 0 1 0.779636,0.779636 z"
       style="fill:#ababab;fill-opacity:1;stroke:#ababab;stroke-width:0;stroke-miterlimit:4;stroke-dasharray:none;stroke-opacity:1;paint-order:fill markers stroke"
       inkscape:export-xdpi="96"
       inkscape:export-ydpi="96" />
    <path
       inkscape:connector-curvature="0"
       id="path4542-3"
       d="m 46.01292,61.530159 a 1.0631179,1.0631179 0 0 1 -1.063118,1.063118 1.0631179,1.0631179 0 0 1 -1.063117,-1.063118 1.0631179,1.0631179 0 0 1 1.063117,-1.063118 1.0631179,1.0631179 0 0 1 1.063118,1.063118 z"
       style="fill:#ababab;fill-opacity:1;stroke:#ababab;stroke-width:0;stroke-miterlimit:4;stroke-dasharray:none;stroke-opacity:1;paint-order:fill markers stroke"
       inkscape:export-xdpi="96"
       inkscape:export-ydpi="96" />
    <path
       inkscape:connector-curvature="0"
       id="rect4568"
       d="M 7.9752974,80.041667 H 83.116964 c 1.486732,0 2.683632,1.506106 2.683632,3.376918 V 204.98764 c 0,1.87082 -1.1969,3.37693 -2.683632,3.37693 H 7.9752974 c -1.4867315,0 -2.6836308,-1.50611 -2.6836308,-3.37693 V 83.418585 c 0,-1.870812 1.1968993,-3.376918 2.6836308,-3.376918 z"
       style="fill:#ababab;fill-opacity:1;stroke:#ababab;stroke-width:0;stroke-miterlimit:4;stroke-dasharray:none;stroke-opacity:1;paint-order:fill markers stroke"
       inkscape:export-xdpi="96"
       inkscape:export-ydpi="96" />
    <rect
       style="fill:#ababab;fill-opacity:1;stroke:#ababab;stroke-width:0;stroke-miterlimit:4;stroke-dasharray:none;stroke-opacity:1;paint-order:fill markers stroke"
       id="rect4578"
       width="1.3229166"
       height="3.9687498"
       x="-2.6458333"
       y="80.041664"
       ry="0.49609372"
       inkscape:export-xdpi="96"
       inkscape:export-ydpi="96" />
    <rect
       style="fill:#ababab;fill-opacity:1;stroke:#ababab;stroke-width:0;stroke-miterlimit:4;stroke-dasharray:none;stroke-opacity:1;paint-order:fill markers stroke"
       id="rect4578-6"
       width="1.3229166"
       height="3.9687498"
       x="-2.6458333"
       y="73.427086"
       ry="0.49609372"
       inkscape:export-xdpi="96"
       inkscape:export-ydpi="96" />
    <rect
       style="fill:#ababab;fill-opacity:1;stroke:#ababab;stroke-width:0;stroke-miterlimit:4;stroke-dasharray:none;stroke-opacity:1;paint-order:fill markers stroke"
       id="rect4578-6-7"
       width="1.3229166"
       height="3.9687498"
       x="-2.6458333"
       y="86.65625"
       ry="0.49609372"
       inkscape:export-xdpi="96"
       inkscape:export-ydpi="96" />
  </g>
</svg>
